<svg width="56px" height="56px" viewBox="0 0 56 56" xmlns="http://www.w3.org/2000/svg">
  <path cx="512" cy="512" r="512" style="fill:#13aa52" d="M56 28A28 28 0 0 1 28 56A28 28 0 0 1 0 28A28 28 0 0 1 56 28z"/>
  <path d="M35.485 24.579c-1.769 -7.806 -5.948 -10.372 -6.398 -11.353 -0.492 -0.692 -0.991 -1.922 -0.991 -1.922 -0.008 -0.021 -0.021 -0.057 -0.037 -0.093 -0.051 0.692 -0.077 0.959 -0.731 1.656 -1.013 0.792 -6.209 5.152 -6.632 14.02 -0.394 8.271 5.975 13.199 6.836 13.828l0.098 0.069v-0.006c0.005 0.042 0.273 1.969 0.462 4.011H28.766a39.74 39.74 0 0 1 0.711 -4.295l0.055 -0.036a11.182 11.182 0 0 0 1.1 -0.9l0.039 -0.036c1.831 -1.691 5.123 -5.604 5.09 -11.841a18.98 18.98 0 0 0 -0.276 -3.104zM28.019 36.046s0 -11.6 0.383 -11.598c0.299 0 0.685 14.963 0.685 14.963 -0.532 -0.064 -1.068 -2.463 -1.068 -3.365z" style="fill:#fff"/>
</svg>