<svg width="56px" height="56px" viewBox="-3.197 0 56 56" version="1.1" xmlns="http://www.w3.org/2000/svg" xmlns:xlink="http://www.w3.org/1999/xlink" preserveAspectRatio="xMidYMid">
  <g>
    <path d="M24.803 55.896c-0.77 0 -1.489 -0.205 -2.157 -0.565l-6.83 -4.057c-1.027 -0.565 -0.513 -0.77 -0.205 -0.873 1.386 -0.462 1.643 -0.565 3.081 -1.387 0.154 -0.103 0.36 -0.051 0.513 0.051l5.238 3.133c0.205 0.103 0.462 0.103 0.616 0l20.489 -11.862c0.205 -0.103 0.308 -0.308 0.308 -0.565V16.099c0 -0.257 -0.103 -0.462 -0.308 -0.565l-20.489 -11.811c-0.205 -0.103 -0.462 -0.103 -0.616 0L3.954 15.534c-0.205 0.103 -0.308 0.359 -0.308 0.565v23.673c0 0.205 0.103 0.462 0.308 0.565l5.597 3.235c3.03 1.54 4.93 -0.257 4.93 -2.054V18.153c0 -0.308 0.257 -0.616 0.616 -0.616h2.619c0.308 0 0.616 0.257 0.616 0.616v23.365c0 4.057 -2.208 6.419 -6.06 6.419 -1.181 0 -2.105 0 -4.724 -1.284l-5.392 -3.081C0.822 42.801 0 41.363 0 39.823V16.15C0 14.61 0.822 13.172 2.157 12.401L22.646 0.539c1.284 -0.719 3.03 -0.719 4.313 0L47.449 12.401C48.784 13.172 49.606 14.609 49.606 16.15v23.673c0 1.54 -0.822 2.978 -2.157 3.749L26.959 55.434c-0.668 0.308 -1.438 0.462 -2.157 0.462Zm6.316 -16.279c-8.987 0 -10.835 -4.108 -10.835 -7.6 0 -0.308 0.257 -0.616 0.616 -0.616h2.67c0.308 0 0.565 0.205 0.565 0.513 0.411 2.722 1.592 4.057 7.035 4.057 4.314 0 6.162 -0.976 6.162 -3.286 0 -1.335 -0.513 -2.311 -7.241 -2.979 -5.597 -0.565 -9.089 -1.797 -9.089 -6.265 0 -4.16 3.492 -6.624 9.346 -6.624 6.573 0 9.808 2.259 10.219 7.189 0 0.154 -0.051 0.308 -0.154 0.462 -0.103 0.103 -0.257 0.205 -0.411 0.205h-2.67c-0.257 0 -0.513 -0.205 -0.565 -0.462 -0.616 -2.824 -2.208 -3.749 -6.419 -3.749 -4.724 0 -5.289 1.643 -5.289 2.876 0 1.489 0.668 1.951 7.035 2.773 6.316 0.822 9.295 2.003 9.295 6.419 -0.051 4.519 -3.749 7.086 -10.27 7.086Z" fill="#539E43"/>
  </g>
</svg>