<svg width="56px" height="56px" viewBox="0 0 56 56" xmlns="http://www.w3.org/2000/svg">
  <path d="M36.542 36.281a3.068 3.068 0 0 0 2.765 -3.234 3.18 3.18 0 0 0 -3.15 -3.038h-0.112a3.155 3.155 0 0 0 -3.04 3.26c0.056 0.884 0.418 1.603 0.912 2.126 -1.93 3.754 -4.83 6.519 -9.226 8.839 -2.954 1.547 -6.076 2.128 -9.112 1.713 -2.541 -0.357 -4.527 -1.493 -5.747 -3.316 -1.82 -2.765 -1.988 -5.745 -0.469 -8.727a13.06 13.06 0 0 1 3.869 -4.506 18.387 18.387 0 0 1 -0.772 -2.842c-8.181 5.857 -7.345 13.865 -4.863 17.649 1.853 2.763 5.635 4.529 9.777 4.529 1.106 0 2.268 -0.082 3.4 -0.359 7.18 -1.381 12.621 -5.689 15.743 -12.04l0.026 -0.054z"/>
  <path d="M46.403 29.374c-4.279 -5.026 -10.577 -7.786 -17.759 -7.786h-0.94c-0.467 -1.022 -1.542 -1.659 -2.76 -1.659h-0.084c-1.736 0 -3.092 1.493 -3.036 3.232 0.054 1.657 1.463 3.038 3.15 3.038h0.138a3.108 3.108 0 0 0 2.76 -1.932h1.024c4.256 0 8.286 1.241 11.961 3.673 2.814 1.848 4.835 4.279 5.966 7.18 0.992 2.378 0.938 4.697 -0.082 6.634 -1.575 3.038 -4.228 4.639 -7.733 4.639 -2.21 0 -4.366 -0.691 -5.472 -1.188 -0.66 0.548 -1.769 1.461 -2.571 2.014 2.431 1.104 4.891 1.741 7.264 1.741 5.388 0 9.387 -3.038 10.911 -5.966 1.654 -3.318 1.519 -8.897 -2.709 -13.671l-0.028 0.054z"/>
  <path d="M17.843 37.275c0.054 1.657 1.461 3.038 3.15 3.038h0.112a3.113 3.113 0 0 0 3.038 -3.26c0 -1.657 -1.437 -3.036 -3.122 -3.036h-0.112c-0.112 0 -0.275 0 -0.415 0.051 -2.291 -3.866 -3.26 -8.013 -2.898 -12.481 0.219 -3.372 1.323 -6.3 3.313 -8.731 1.657 -2.072 4.779 -3.094 6.907 -3.15 5.964 -0.112 8.451 7.322 8.643 10.276l2.763 0.826C38.584 11.751 32.951 7 27.564 7 22.51 7 17.843 10.673 15.965 16.063c-2.571 7.18 -0.884 14.084 2.266 19.609 -0.275 0.359 -0.441 0.994 -0.387 1.603z"/>
</svg>