<svg width="56px" height="56px" viewBox="0 0 1.05 1.05" fill="none" xmlns="http://www.w3.org/2000/svg">
  <path d="M0.525 0.175c-0.072 0 -0.134 0.019 -0.182 0.061 -0.048 0.041 -0.08 0.101 -0.097 0.176a0.035 0.035 0 0 0 0.063 0.028c0.022 -0.032 0.044 -0.051 0.066 -0.06 0.021 -0.009 0.043 -0.011 0.068 -0.005 0.026 0.007 0.046 0.027 0.077 0.061l0.001 0.001c0.024 0.026 0.052 0.057 0.091 0.081 0.041 0.025 0.091 0.042 0.158 0.042 0.072 0 0.134 -0.019 0.182 -0.061 0.048 -0.041 0.08 -0.101 0.097 -0.176a0.035 0.035 0 0 0 -0.063 -0.028c-0.022 0.032 -0.044 0.051 -0.066 0.06 -0.021 0.009 -0.043 0.011 -0.068 0.005 -0.026 -0.007 -0.046 -0.027 -0.077 -0.061l-0.001 -0.001c-0.024 -0.026 -0.052 -0.057 -0.091 -0.081 -0.041 -0.025 -0.091 -0.042 -0.158 -0.042Z" fill="#000000"/>
  <path d="M0.28 0.49c-0.072 0 -0.134 0.019 -0.182 0.061C0.05 0.592 0.018 0.652 0.001 0.727a0.035 0.035 0 0 0 0.063 0.028c0.022 -0.032 0.044 -0.051 0.066 -0.06 0.021 -0.009 0.043 -0.011 0.068 -0.005 0.026 0.007 0.046 0.027 0.077 0.061l0.001 0.001c0.024 0.026 0.052 0.057 0.091 0.081 0.041 0.025 0.091 0.042 0.158 0.042 0.072 0 0.134 -0.019 0.182 -0.061 0.048 -0.041 0.08 -0.101 0.097 -0.176a0.035 0.035 0 0 0 -0.063 -0.028c-0.022 0.032 -0.044 0.051 -0.066 0.06 -0.021 0.009 -0.043 0.011 -0.068 0.005 -0.026 -0.007 -0.046 -0.027 -0.077 -0.061l-0.001 -0.001c-0.023 -0.026 -0.052 -0.057 -0.091 -0.081C0.398 0.507 0.347 0.49 0.28 0.49Z" fill="#000000"/>
</svg>